<svg xmlns="http://www.w3.org/2000/svg" viewBox="0 0 100 115.54271539545476" xmlns:xlink="http://www.w3.org/1999/xlink" version="1.1"  ><g transform="translate(-15.62540930764073 -8.531303047271603) scale(1.3125081611187082)" id="containerlessSvgTemplate"><g fill="#4A90E2"><path d="M76.565 21.839l-11.527 6.657 11.528 6.656V48.48l11.529-6.657V28.496zM11.905 28.496l11.528 6.658v13.328l11.53-6.658V28.496l-11.531-6.655zM38.47 13.156L50 19.814V33.14l11.528-6.656V13.156L49.998 6.5zM38.47 43.903L50 50.56v13.328l11.528-6.658V43.903l-11.53-6.657zM38.47 74.549L50 81.205v13.327l11.528-6.656V74.549l-11.53-6.658zM65.038 59.209l11.528 6.658v13.326l11.529-6.658V59.21l-11.53-6.657zM11.905 59.209l11.528 6.658v13.327l11.53-6.658V59.21l-11.531-6.656z"></path></g></g></svg>
