<?xml version="1.0" encoding="UTF-8"?>
<svg width="14px" height="14px" viewBox="0 0 14 14" version="1.1" xmlns="http://www.w3.org/2000/svg" xmlns:xlink="http://www.w3.org/1999/xlink">
    <!-- Generator: Sketch 47 (45396) - http://www.bohemiancoding.com/sketch -->
    <title>logo_googleg_48dp</title>
    <desc>Created with Sketch.</desc>
    <defs></defs>
    <g id="Page-1" stroke="none" stroke-width="1" fill="none" fill-rule="evenodd">
        <g id="Login" transform="translate(-1196.000000, -546.000000)">
            <g id="logo_googleg_48dp" transform="translate(1196.250000, 546.250000)">
                <path d="M13.23,6.90340909 C13.23,6.42477273 13.1870455,5.96454545 13.1072727,5.52272727 L6.75,5.52272727 L6.75,8.13375 L10.3827273,8.13375 C10.22625,8.9775 9.75068182,9.69238635 9.03579548,10.1710227 L9.03579548,11.8646591 L11.2172727,11.8646591 C12.4936364,10.6895455 13.23,8.95909087 13.23,6.90340909 L13.23,6.90340909 Z" id="Shape" fill="#4285F4" fill-rule="nonzero"></path>
                <path d="M6.75,13.5 C8.5725,13.5 10.1004545,12.8955682 11.2172727,11.8646591 L9.03579548,10.1710227 C8.43136365,10.5760227 7.65818183,10.8153409 6.75,10.8153409 C4.99193182,10.8153409 3.50386364,9.62795452 2.97306818,8.0325 L0.717954545,8.0325 L0.717954545,9.78136365 C1.82863637,11.9873863 4.11136364,13.5 6.75,13.5 L6.75,13.5 Z" id="Shape" fill="#34A853" fill-rule="nonzero"></path>
                <path d="M2.97306818,8.0325 C2.83806818,7.6275 2.76136363,7.19488636 2.76136363,6.75 C2.76136363,6.30511363 2.83806818,5.8725 2.97306818,5.4675 L2.97306818,3.71863637 L0.717954545,3.71863637 C0.260795455,4.62988636 0,5.66079545 0,6.75 C0,7.83920452 0.260795455,8.87011365 0.717954545,9.78136365 L2.97306818,8.0325 L2.97306818,8.0325 Z" id="Shape" fill="#FBBC05" fill-rule="nonzero"></path>
                <path d="M6.75,2.68465909 C7.7410227,2.68465909 8.63079548,3.02522727 9.33034087,3.69409091 L11.2663637,1.75806818 C10.0973864,0.668863636 8.56943183,0 6.75,0 C4.11136364,0 1.82863637,1.51261363 0.717954545,3.71863636 L2.97306818,5.4675 C3.50386364,3.87204545 4.99193182,2.68465909 6.75,2.68465909 L6.75,2.68465909 Z" id="Shape" fill="#EA4335" fill-rule="nonzero"></path>
                <polygon id="Shape" points="0 0 13.5 0 13.5 13.5 0 13.5"></polygon>
            </g>
        </g>
    </g>
</svg>