<?xml version="1.0" encoding="UTF-8"?>
<svg width="60px" height="23px" viewBox="0 0 60 23" version="1.1" xmlns="http://www.w3.org/2000/svg" xmlns:xlink="http://www.w3.org/1999/xlink">
    <!-- Generator: Sketch 47 (45396) - http://www.bohemiancoding.com/sketch -->
    <title>Logo - Alternate Layout - Black</title>
    <desc>Created with Sketch.</desc>
    <defs></defs>
    <g id="Symbols" stroke="none" stroke-width="1" fill="none" fill-rule="evenodd">
        <g id="Horizontal-logo" transform="translate(-175.000000, -4.000000)" fill-rule="nonzero" fill="#4A90E2">
            <g id="Logo---Alternate-Layout---Black" transform="translate(175.000000, 4.000000)">
                <g id="horizontalContainerlessSvgTemplate" transform="translate(0.210678, 0.327996)">
                    <g id="Group">
                        <g transform="translate(26.803418, 2.556016)" id="line1">
                            <g>
                                <polygon id="Shape" points="0.0461412634 14.4191448 3.40606417 14.4191448 3.40606417 0.205538355 0.0461412634 0.205538355"></polygon>
                                <path d="M10.2826854,14.6456565 C13.2650889,14.6456565 14.9828023,13.3809664 15.2848178,11.1536018 L12.1136546,11.1536018 C11.9815228,11.8142608 11.5096236,12.323912 10.3959412,12.323912 C9.18787907,12.323912 8.43284022,11.5688731 8.33846036,10.2664311 L15.2848178,10.2664311 L15.2848178,9.37926045 C15.2848178,5.83057783 12.9630734,4.28274818 10.2638094,4.28274818 C7.28140596,4.28274818 4.92190954,6.28360114 4.92190954,9.45476434 L4.92190954,9.60577211 C4.92190954,12.8335632 7.18702611,14.6456565 10.2826854,14.6456565 Z M8.3762123,8.359958 C8.54609605,7.1707718 9.24450699,6.5101128 10.2638094,6.5101128 C11.3586158,6.5101128 11.9437709,7.1707718 12.0003988,8.359958 L8.3762123,8.359958 Z" id="Shape"></path>
                                <path d="M20.3490837,14.6456565 C21.8402854,14.6456565 22.9350917,13.8339897 23.425867,12.8146872 L23.425867,14.4191448 L26.8046659,14.4191448 L26.8046659,0.205538355 L23.425867,0.205538355 L23.425867,5.94383366 C22.8595879,4.94340717 21.9346653,4.28274818 20.3868356,4.28274818 C18.0462151,4.28274818 16.19637,6.07596546 16.19637,9.43588837 L16.19637,9.58689614 C16.19637,13.003447 18.0650911,14.6456565 20.3490837,14.6456565 Z M21.5382699,12.0596484 C20.3679596,12.0596484 19.6317967,11.2102297 19.6317967,9.54914419 L19.6317967,9.39813642 C19.6317967,7.68042303 20.3113317,6.83100431 21.5760218,6.83100431 C22.8218359,6.83100431 23.5202469,7.71817497 23.5202469,9.37926045 L23.5202469,9.53026822 C23.5202469,11.2102297 22.765208,12.0596484 21.5382699,12.0596484 Z" id="Shape"></path>
                                <path d="M27.6409763,17.8923235 C31.2085349,17.8923235 32.2089613,16.4766257 32.2089613,14.3436409 L32.2089613,4.54701177 L28.8490384,4.54701177 L28.8490384,14.268137 C28.8490384,15.0420519 28.471519,15.3818194 27.6409763,15.4384473 L27.6409763,17.8923235 Z M30.5289999,3.60321321 C31.5860543,3.60321321 32.3977211,2.86705032 32.3977211,1.86662384 C32.3977211,0.866197354 31.5860543,0.111158498 30.5289999,0.111158498 C29.4719455,0.111158498 28.6791547,0.866197354 28.6791547,1.86662384 C28.6791547,2.86705032 29.4719455,3.60321321 30.5289999,3.60321321 Z" id="Shape"></path>
                            </g>
                        </g>
                        <g id="logomark" transform="translate(0.176058, 0.112487)">
                            <g id="Group">
                                <path d="M19.0585564,2.76251117 C19.0540786,2.53834224 18.9009945,2.41156506 18.7308388,2.34887612 L10.6895833,0.249356443 C10.500397,0.202059879 10.2991767,0.147766781 10.1108301,0.147766781 C9.92812532,0.146874546 9.74752166,0.186743114 9.582172,0.264468955 L9.38626907,0.377812793 L1.69176173,4.84747806 C1.66629435,4.8645496 1.64166655,4.88302045 1.61703875,4.9014913 C0.416153794,5.69321899 0.201500156,6.53756062 0.201500156,7.47957385 L0.201500156,16.3327071 C0.201500156,16.7844033 0.441621175,17.1801272 0.802362427,17.3986989 L0.810758267,17.4040163 L8.55200246,21.8700433 C8.72357521,21.9744605 8.93812117,21.9782438 9.11326872,21.8799408 C9.28841628,21.7816378 9.39694374,21.5965268 9.39718367,21.3956784 L9.39718367,12.4417951 C9.39719326,12.0278453 9.19138423,11.6409831 8.84809574,11.4096665 L8.67514144,11.3114351 L2.40121019,7.77342824 C1.9184494,7.48824955 1.8750709,6.93020606 2.01947934,6.59521205 C2.22741631,6.11636932 2.73732365,6.02401508 3.09190795,6.11049223 L9.62051301,7.78294353 C9.84020415,7.83359843 9.99804594,7.87921582 10.1959079,7.87921582 C10.3960087,7.87921582 10.585195,7.83275884 10.7533917,7.74908031 L10.8653362,7.68555179 L18.7235624,3.25394766 C18.8665716,3.15403716 19.0635939,2.98500092 19.0585564,2.76251117 Z M19.4937408,6.01477966 L17.5582198,4.94990731 L16.0089075,5.84742258 C16.0089075,5.84742258 17.7857471,6.82693723 18.0851987,7.02983669 C18.4476191,7.27499522 18.3048899,7.63545661 18.0656084,7.77006991 L11.7874793,11.311715 L11.6170437,11.4074276 L11.6142451,11.4099463 C11.2706829,11.640984 11.0648682,12.0280543 11.065437,12.4420749 L11.065437,21.3953985 C11.0653464,21.5913936 11.1686445,21.7729024 11.3371986,21.8729204 C11.5057527,21.9729384 11.7145645,21.9766317 11.8865502,21.8826371 C11.8944892,21.8788837 11.9021573,21.8745821 11.9094988,21.8697635 L19.6479444,17.4051357 L19.658859,17.3986989 C20.0318339,17.1729807 20.2596266,16.7686646 20.2594414,16.3327071 L20.2594414,7.47985371 C20.2600011,6.70743644 20.0682961,6.33801949 19.4937408,6.01477966 L19.4937408,6.01477966 Z" id="Shape"></path>
                            </g>
                        </g>
                    </g>
                </g>
            </g>
        </g>
    </g>
</svg>