<?xml version="1.0" encoding="UTF-8"?>
<svg width="17px" height="17px" viewBox="0 0 17 17" version="1.1" xmlns="http://www.w3.org/2000/svg" xmlns:xlink="http://www.w3.org/1999/xlink">
    <!-- Generator: Sketch 47 (45396) - http://www.bohemiancoding.com/sketch -->
    <title>Shape</title>
    <desc>Created with Sketch.</desc>
    <defs></defs>
    <g id="Symbols" stroke="none" stroke-width="1" fill="none" fill-rule="evenodd">
        <g id="Menu-Actions" transform="translate(-251.000000, -9.000000)" fill-rule="nonzero" fill="#FFFFFF">
            <g id="Bulk-Action-Bar">
                <path d="M265.509481,18.2844005 C265.543304,18.0138169 265.568672,17.7432332 265.568672,17.4557381 C265.568672,17.168243 265.543304,16.8976594 265.509481,16.6270758 L267.293642,15.231879 C267.454301,15.1050429 267.49658,14.876738 267.395111,14.6907118 L265.703963,11.7650264 C265.602495,11.5790001 265.37419,11.5113542 265.188163,11.5790001 L263.082685,12.4245739 C262.642986,12.0863444 262.169465,11.8073051 261.653665,11.5959116 L261.332347,9.355141 C261.30698,9.15220329 261.129409,9 260.918016,9 L257.53572,9 C257.324327,9 257.146756,9.15220329 257.121389,9.355141 L256.800071,11.5959116 C256.284271,11.8073051 255.81075,12.0948002 255.371051,12.4245739 L253.265573,11.5790001 C253.071091,11.5028985 252.851241,11.5790001 252.749773,11.7650264 L251.058625,14.6907118 C250.9487,14.876738 250.999435,15.1050429 251.160094,15.231879 L252.944255,16.6270758 C252.910432,16.8976594 252.885064,17.1766988 252.885064,17.4557381 C252.885064,17.7347775 252.910432,18.0138169 252.944255,18.2844005 L251.160094,19.6795973 C250.999435,19.8064334 250.957156,20.0347383 251.058625,20.2207645 L252.749773,23.1464499 C252.851241,23.3324762 253.079546,23.4001221 253.265573,23.3324762 L255.371051,22.4869023 C255.81075,22.8251319 256.284271,23.1041712 256.800071,23.3155647 L257.121389,25.5563353 C257.146756,25.759273 257.324327,25.9114763 257.53572,25.9114763 L260.918016,25.9114763 C261.129409,25.9114763 261.30698,25.759273 261.332347,25.5563353 L261.653665,23.3155647 C262.169465,23.1041712 262.642986,22.8166761 263.082685,22.4869023 L265.188163,23.3324762 C265.382645,23.4085778 265.602495,23.3324762 265.703963,23.1464499 L267.395111,20.2207645 C267.49658,20.0347383 267.454301,19.8064334 267.293642,19.6795973 L265.509481,18.2844005 Z M259.226868,20.4152465 C257.594911,20.4152465 256.26736,19.0876956 256.26736,17.4557381 C256.26736,15.8237807 257.594911,14.4962298 259.226868,14.4962298 C260.858826,14.4962298 262.186376,15.8237807 262.186376,17.4557381 C262.186376,19.0876956 260.858826,20.4152465 259.226868,20.4152465 Z" id="Shape"></path>
            </g>
        </g>
    </g>
</svg>